<?xml version="1.0" encoding="iso-8859-1"?>
<!-- Uploaded to: SVG Repo, www.svgrepo.com, Generator: SVG Repo Mixer Tools -->
<svg height="800px" width="800px" version="1.1" id="Layer_1" xmlns="http://www.w3.org/2000/svg" xmlns:xlink="http://www.w3.org/1999/xlink" 
	 viewBox="0 0 504.627 504.627" xml:space="preserve">
<path style="fill:#B5FF40;" d="M207.045,314.817c-81.495,0-147.566-66.064-147.566-147.558S125.55,19.692,207.045,19.692"/>
<path style="fill:#144763;" d="M207.045,334.509c-92.231,0-167.259-75.028-167.259-167.251S114.814,0,207.045,0
	c10.878,0,19.692,8.814,19.692,19.692s-8.814,19.692-19.692,19.692c-70.506,0-127.874,57.36-127.874,127.866
	s57.368,127.866,127.874,127.866c10.878,0,19.692,8.814,19.692,19.692C226.737,325.687,217.923,334.509,207.045,334.509z"/>
<path style="fill:#87EA06;" d="M297.582,189.818c81.51,0,147.566,66.056,147.566,147.551c0,81.51-66.064,147.558-147.566,147.558"/>
<path style="fill:#144763;" d="M297.582,504.627c-10.878,0-19.692-8.814-19.692-19.692s8.814-19.692,19.692-19.692
	c70.514,0,127.874-57.36,127.874-127.866c0-70.498-57.36-127.858-127.874-127.858c-10.878,0-19.692-8.814-19.692-19.692
	c0-10.878,8.814-19.692,19.692-19.692c92.231,0,167.259,75.02,167.259,167.243S389.813,504.627,297.582,504.627z"/>
<polyline style="fill:#87EA06;" points="264.767,314.652 305.168,314.652 305.168,355.052 "/>
<path style="fill:#144763;" d="M305.168,374.745c-10.878,0-19.692-8.814-19.692-19.692v-20.708h-20.708
	c-10.878,0-19.692-8.814-19.692-19.692s8.814-19.692,19.692-19.692h40.401c10.878,0,19.692,8.814,19.692,19.692v40.401
	C324.86,365.93,316.046,374.745,305.168,374.745z"/>
<polyline style="fill:#87EA06;" points="239.86,189.976 199.459,189.976 199.459,149.575 "/>
<path style="fill:#144763;" d="M239.86,209.668h-40.401c-10.878,0-19.692-8.814-19.692-19.692v-40.401
	c0-10.878,8.814-19.692,19.692-19.692s19.692,8.814,19.692,19.692v20.708h20.708c10.878,0,19.692,8.814,19.692,19.692
	S250.738,209.668,239.86,209.668z"/>
<g>
	<circle style="fill:#87EA06;" cx="220.31" cy="252.314" r="8.373"/>
	<circle style="fill:#87EA06;" cx="252.314" cy="252.314" r="8.373"/>
	<circle style="fill:#87EA06;" cx="284.31" cy="252.314" r="8.365"/>
</g>
</svg>